<svg width="1140" height="468" viewBox="0 0 1140 468" fill="none" xmlns="http://www.w3.org/2000/svg">
    <rect y="-0.000244141" width="1140" height="468" rx="20" fill="#0A1C2B" />
    <path d="M0 158.914C0 158.914 26.7807 74.5777 84.5 44.1429C165.048 1.6705 360 6.00805e-05 360 6.00805e-05L20 8.98043e-05C8.9543 9.07699e-05 -1.31099e-05 8.95439 -1.21442e-05 20.0001L0 158.914Z" fill="#153148" />
    <path d="M1140 309.086C1140 309.086 1113.22 393.422 1055.5 423.857C974.952 466.329 780 468 780 468L1120 468C1131.05 468 1140 459.046 1140 448L1140 309.086Z" fill="#153148" />
</svg>
    